{"accessors": [{"bufferView": 2, "componentType": 5126, "count": 1538, "max": [1.703908920288086, 1.703908920288086, 3.4359183311462402], "min": [-1.703908920288086, -1.703908920288086, 0.028100550174713135], "type": "VEC3"}, {"bufferView": 2, "byteOffset": 18456, "componentType": 5126, "count": 1538, "max": [1, 1, 1], "min": [-1, -1, -1], "type": "VEC3"}, {"bufferView": 0, "componentType": 5125, "count": 9216, "type": "SCALAR"}, {"bufferView": 2, "byteOffset": 36912, "componentType": 5126, "count": 65532, "max": [2.7291455268859863, 2.15905499458313, 3.1781673431396484], "min": [0.3653683066368103, -1.9042764902114868, -1.1149370670318604], "type": "VEC3"}, {"bufferView": 2, "byteOffset": 823296, "componentType": 5126, "count": 65532, "max": [0.9999585151672363, 0.9999878406524658, 0.8578943014144897], "min": [-0.9998279809951782, -0.9997868537902832, -0.46822792291641235], "type": "VEC3"}, {"bufferView": 3, "componentType": 5126, "count": 65532, "max": [0.9866955876350403, 0.9667397141456604, -0.044020406901836395, 1], "min": [-0.9608280658721924, -0.9673876762390137, -0.9975898861885071, 1], "type": "VEC4"}, {"bufferView": 1, "componentType": 5126, "count": 65532, "max": [1.0000003576278687, 1.0000003576278687], "min": [0, 0], "type": "VEC2"}, {"bufferView": 0, "byteOffset": 36864, "componentType": 5125, "count": 376422, "type": "SCALAR"}, {"bufferView": 2, "byteOffset": 1609680, "componentType": 5126, "count": 65532, "max": [2.739558219909668, 2.1414430141448975, 1.418602705001831], "min": [-2.762561321258545, -2.1415719985961914, -1.1348974704742432], "type": "VEC3"}, {"bufferView": 2, "byteOffset": 2396064, "componentType": 5126, "count": 65532, "max": [0.9906533360481262, 0.9626506567001343, 0.8595462441444397], "min": [-0.9545144438743591, -0.9993577003479004, -0.25584545731544495], "type": "VEC3"}, {"bufferView": 3, "byteOffset": 1048512, "componentType": 5126, "count": 65532, "max": [0.8532416224479675, 0.4774135947227478, 0.9982006549835205, 1], "min": [-0.0160641111433506, -0.5807188153266907, -0.9983255863189697, 1], "type": "VEC4"}, {"bufferView": 1, "byteOffset": 524256, "componentType": 5126, "count": 65532, "max": [1.0000003576278687, 1.0000003576278687], "min": [0, 0], "type": "VEC2"}, {"bufferView": 0, "byteOffset": 1542552, "componentType": 5125, "count": 375723, "type": "SCALAR"}, {"bufferView": 2, "byteOffset": 3182448, "componentType": 5126, "count": 65532, "max": [1.0077918767929077, 2.2898669242858887, 3.492748498916626], "min": [-2.564966917037964, -2.097172498703003, -0.4855964183807373], "type": "VEC3"}, {"bufferView": 2, "byteOffset": 3968832, "componentType": 5126, "count": 65532, "max": [0.9999580383300781, 0.9983232617378235, 0.9999980926513672], "min": [-0.9960153698921204, -0.9999855756759644, -0.485200971364975], "type": "VEC3"}, {"bufferView": 3, "byteOffset": 2097024, "componentType": 5126, "count": 65532, "max": [0.9999992251396179, 0.9977354407310486, 0.9960069060325623, 1], "min": [-0.9982068538665771, -0.9960681796073914, -0.8511933088302612, 1], "type": "VEC4"}, {"bufferView": 1, "byteOffset": 1048512, "componentType": 5126, "count": 65532, "max": [1.0000003576278687, 1.0000003576278687], "min": [0, 0], "type": "VEC2"}, {"bufferView": 0, "byteOffset": 3045444, "componentType": 5125, "count": 374529, "type": "SCALAR"}, {"bufferView": 2, "byteOffset": 4755216, "componentType": 5126, "count": 60775, "max": [0.9157962799072266, 1.8945027589797974, 3.4919588565826416], "min": [-2.5740885734558105, -2.238104820251465, -0.5647575855255127], "type": "VEC3"}, {"bufferView": 2, "byteOffset": 5484516, "componentType": 5126, "count": 60775, "max": [0.9996256828308105, 0.9998929500579834, 0.9994716644287109], "min": [-0.9976267218589783, -0.999976634979248, -0.5805618166923523], "type": "VEC3"}, {"bufferView": 3, "byteOffset": 3145536, "componentType": 5126, "count": 60775, "max": [0.9999968409538269, 0.9970591068267822, 0.9988672137260437, 1], "min": [-0.9219105243682861, -0.9946662783622742, -0.7828059792518616, 1], "type": "VEC4"}, {"bufferView": 1, "byteOffset": 1572768, "componentType": 5126, "count": 60775, "max": [1.0000003576278687, 1.0000003576278687], "min": [0, 0], "type": "VEC2"}, {"bufferView": 0, "byteOffset": 4543560, "componentType": 5125, "count": 347886, "type": "SCALAR"}], "asset": {"extras": {"author": "Arthur.Zim (https://sketchfab.com/Arthur.Zim)", "license": "CC-BY-4.0 (http://creativecommons.org/licenses/by/4.0/)", "source": "https://sketchfab.com/3d-models/seamless-fabric-texture-i-681ff1d168f343b491c2fb755dea0668", "title": "Seamless Fabric Texture I"}, "generator": "Sketchfab-12.67.0", "version": "2.0"}, "bufferViews": [{"buffer": 0, "byteLength": 5935104, "name": "floatBufferViews", "target": 34963}, {"buffer": 0, "byteLength": 2058968, "byteOffset": 5935104, "byteStride": 8, "name": "floatBufferViews", "target": 34962}, {"buffer": 0, "byteLength": 6213816, "byteOffset": 7994072, "byteStride": 12, "name": "floatBufferViews", "target": 34962}, {"buffer": 0, "byteLength": 4117936, "byteOffset": 14207888, "byteStride": 16, "name": "floatBufferViews", "target": 34962}], "buffers": [{"byteLength": 18325824, "uri": "scene.bin"}], "meshes": [{"name": "Cube_S_0", "primitives": [{"attributes": {"NORMAL": 1, "POSITION": 0}, "indices": 2, "mode": 4}]}, {"name": "Plane_Material_0", "primitives": [{"attributes": {"NORMAL": 4, "POSITION": 3, "TANGENT": 5, "TEXCOORD_0": 6}, "indices": 7, "mode": 4}]}, {"name": "Plane_Material_0", "primitives": [{"attributes": {"NORMAL": 9, "POSITION": 8, "TANGENT": 10, "TEXCOORD_0": 11}, "indices": 12, "mode": 4}]}, {"name": "Plane_Material_0", "primitives": [{"attributes": {"NORMAL": 14, "POSITION": 13, "TANGENT": 15, "TEXCOORD_0": 16}, "indices": 17, "mode": 4}]}, {"name": "Plane_Material_0", "primitives": [{"attributes": {"NORMAL": 19, "POSITION": 18, "TANGENT": 20, "TEXCOORD_0": 21}, "indices": 22, "mode": 4}]}], "nodes": [{"children": [1], "matrix": [1, 0, 0, 0, 0, 2.220446049250313e-16, -1, 0, 0, 1, 2.220446049250313e-16, 0, 0, 0, 0, 1], "name": "Sketchfab_model"}, {"children": [2], "matrix": [1, 0, 0, 0, 0, 0, 1, 0, 0, -1, 0, 0, 0, 0, 0, 1], "name": "d4e6d24b45494f839e50e4a35fb343bd.fbx"}, {"children": [3, 5], "name": "RootNode"}, {"children": [4], "matrix": [1, 0, 0, 0, 0, -1.6292067939183141e-07, -0.9999999999999868, 0, 0, 0.9999999999999868, -1.6292067939183141e-07, 0, 0, 0, 0, 1], "name": "Cube"}, {"mesh": 0, "name": "Cube_S_0"}, {"children": [6, 7, 8, 9], "matrix": [1, 0, 0, 0, 0, -1.6292067939183141e-07, -0.9999999999999868, 0, 0, 0.9999999999999868, -1.6292067939183141e-07, 0, 0, 0, 0, 1], "name": "Plane"}, {"mesh": 1, "name": "Plane_Material_0"}, {"mesh": 2, "name": "Plane_Material_0"}, {"mesh": 3, "name": "Plane_Material_0"}, {"mesh": 4, "name": "Plane_Material_0"}], "scene": 0, "scenes": [{"name": "Sketchfab_Scene", "nodes": [0]}]}